<svg xmlns="http://www.w3.org/2000/svg" version="1.1" xmlns:xlink="http://www.w3.org/1999/xlink" xmlns:svgjs="http://svgjs.dev/svgjs" width="1440" height="560" preserveAspectRatio="none" viewBox="0 0 1440 560"><g mask="url(&quot;#SvgjsMask1001&quot;)" fill="none"><path d="M720 729.92C837.57 736.42 945.15 671.65 1029.37 589.37 1114.71 506 1176.25 399.24 1180.53 280 1184.95 156.61 1141.12 33.47 1052.38-52.38 964.94-137.01 841.48-172.64 720-165.6 605.28-158.94 505.12-97.4 424.1-15.9 343.42 65.29 273.38 165.59 277.15 280 280.82 391.83 364.5 477.27 443 557 522.39 637.65 607.02 723.7 720 729.92" fill="#1c538e"></path><path d="M720 571.13C796.08 575.33 865.68 533.42 920.18 480.18 975.4 426.23 1015.22 357.15 1017.99 280 1020.85 200.16 992.49 120.48 935.07 64.93 878.49 10.17 798.61-12.89 720-8.33 645.77-4.02 580.96 35.8 528.53 88.53 476.33 141.07 431.01 205.97 433.45 280 435.83 352.36 489.97 407.64 540.77 459.23 592.14 511.42 646.89 567.1 720 571.13" fill="#2774c6"></path><path d="M720 412.33C754.58 414.24 786.22 395.19 810.99 370.99 836.09 346.47 854.19 315.07 855.45 280 856.75 243.71 843.86 207.49 817.76 182.24 792.04 157.35 755.73 146.87 720 148.94 686.26 150.9 656.8 169 632.97 192.97 609.24 216.85 588.64 246.35 589.75 280 590.83 312.89 615.44 338.02 638.53 361.47 661.88 385.19 686.77 410.5 720 412.33" fill="#488fdb"></path></g><defs><mask id="SvgjsMask1001"><rect width="1440" height="560" fill="#ffffff"></rect></mask></defs></svg>