<svg xmlns="http://www.w3.org/2000/svg" version="1.1" xmlns:xlink="http://www.w3.org/1999/xlink" xmlns:svgjs="http://svgjs.dev/svgjs" width="1440" height="560" preserveAspectRatio="none" viewBox="0 0 1440 560"><g mask="url(&quot;#SvgjsMask1118&quot;)" fill="none"><rect width="1440" height="560" x="0" y="0" fill="rgba(6, 23, 42, 1)"></rect><path d="M0,397.918C73.705,394.119,131.091,340.097,196.032,305.032C267.102,266.658,367.81,256.73,399.264,182.338C430.813,107.721,368.527,28.075,346.039,-49.753C326.915,-115.939,318.401,-184.978,277.18,-240.178C234,-298.001,177.749,-349.247,108.148,-368.317C39.068,-387.245,-31.73,-362.213,-100.944,-343.783C-171.902,-324.889,-254.784,-317.784,-299.724,-259.712C-344.37,-202.021,-323.527,-120.121,-330.245,-47.482C-336.574,20.952,-359.172,88.979,-338.021,154.369C-315.574,223.768,-268.642,283.293,-209.464,325.932C-148.325,369.984,-75.256,401.797,0,397.918" fill="#040f1b"></path><path d="M1440 892.446C1527.895 892.8050000000001 1607.115 975.875 1691.533 951.393 1779.749 925.809 1862.039 852.203 1885.223 763.326 1908.212 675.194 1822.755 596.954 1807.407 507.175 1792.665 420.93899999999996 1841.318 325.946 1797.505 250.22000000000003 1751.969 171.51600000000002 1662.352 125.113 1573.977 103.71600000000001 1487.691 82.82499999999999 1396.704 99.26999999999998 1314.719 133.33100000000002 1238.176 165.13099999999997 1177.298 222.957 1127.492 289.21 1080.233 352.074 1058.18 426.253 1037.473 502.125 1013.971 588.24 969.7919999999999 677.096 998.5699999999999 761.594 1027.963 847.899 1102.37 923.433 1189.783 949.345 1273.4859999999999 974.1569999999999 1352.698 892.0899999999999 1440 892.446" fill="#081f39"></path></g><defs><mask id="SvgjsMask1118"><rect width="1440" height="560" fill="#ffffff"></rect></mask></defs></svg>